<svg width="208" height="208" viewBox="0 0 208 208" fill="none" xmlns="http://www.w3.org/2000/svg">
<circle cx="104.5" cy="103.5" r="82.5" fill="#F8961D"/>
<circle cx="104" cy="104" r="101.5" stroke="#F8961D" stroke-width="5"/>
<path d="M45.52 77.604C45.52 75.828 46.3 74.292 47.86 72.996C49.42 71.7 51.7 71.052 54.7 71.052C57.508 71.052 59.74 71.724 61.396 73.068C63.076 74.412 63.94 76.008 63.988 77.856C64.036 80.256 62.956 82.236 60.748 83.796C63.484 85.164 64.852 87.096 64.852 89.592C64.852 91.512 64.012 93.144 62.332 94.488C60.652 95.808 58.156 96.468 54.844 96.468C51.556 96.468 49.036 95.772 47.284 94.38C45.532 92.964 44.656 91.248 44.656 89.232C44.656 88.032 45.004 86.856 45.7 85.704C46.396 84.552 47.38 83.592 48.652 82.824C46.564 81.48 45.52 79.74 45.52 77.604ZM55.132 85.416C53.548 84.936 52.372 84.552 51.604 84.264C50.668 84.84 49.948 85.536 49.444 86.352C48.964 87.144 48.724 87.948 48.724 88.764C48.748 90.06 49.288 91.092 50.344 91.86C51.424 92.604 52.984 92.976 55.024 92.976C56.68 92.976 58.036 92.676 59.092 92.076C60.172 91.476 60.712 90.696 60.712 89.736C60.712 89.232 60.616 88.788 60.424 88.404C60.232 87.996 59.98 87.66 59.668 87.396C59.38 87.132 58.996 86.88 58.516 86.64C58.036 86.4 57.568 86.208 57.112 86.064C56.656 85.896 56.116 85.716 55.492 85.524C55.444 85.5 55.396 85.488 55.348 85.488C55.324 85.488 55.288 85.476 55.24 85.452C55.216 85.428 55.18 85.416 55.132 85.416ZM59.956 78.36C59.956 77.256 59.476 76.344 58.516 75.624C57.556 74.904 56.224 74.544 54.52 74.544C52.984 74.544 51.76 74.832 50.848 75.408C49.96 75.984 49.516 76.704 49.516 77.568C49.516 78.384 49.792 79.08 50.344 79.656C50.92 80.232 51.472 80.628 52 80.844C52.528 81.06 53.368 81.348 54.52 81.708C54.712 81.78 54.856 81.828 54.952 81.852C55.96 82.116 56.836 82.368 57.58 82.608C59.164 81.384 59.956 79.968 59.956 78.36ZM80.7513 96H77.4393V78.72H81.2913V90.024L90.5433 78.72H93.8553V96H90.0033V84.696L80.7513 96ZM122.038 80.664C123.862 82.272 124.774 84.504 124.774 87.36C124.774 90.216 123.862 92.448 122.038 94.056C120.214 95.664 118.006 96.468 115.414 96.468C113.158 96.468 111.154 95.808 109.402 94.488C107.65 93.168 106.606 91.332 106.27 88.98H102.526V96H98.6737V78.72H102.526V85.74H106.27C106.606 83.388 107.65 81.552 109.402 80.232C111.154 78.912 113.158 78.252 115.414 78.252C118.006 78.252 120.214 79.056 122.038 80.664ZM111.454 83.256C110.446 84.288 109.942 85.656 109.942 87.36C109.942 89.064 110.446 90.444 111.454 91.5C112.462 92.532 113.782 93.048 115.414 93.048C117.046 93.048 118.354 92.532 119.338 91.5C120.346 90.444 120.85 89.064 120.85 87.36C120.85 85.656 120.346 84.288 119.338 83.256C118.354 82.2 117.046 81.672 115.414 81.672C113.782 81.672 112.462 82.2 111.454 83.256ZM135.046 81.996C134.902 84.252 134.71 86.184 134.47 87.792C134.23 89.4 133.87 90.888 133.39 92.256C132.91 93.6 132.274 94.62 131.482 95.316C130.714 95.988 129.766 96.324 128.638 96.324C127.894 96.324 127.102 96.168 126.262 95.856V92.832C126.67 92.976 127.042 93.048 127.378 93.048C128.746 93.048 129.706 91.86 130.258 89.484C130.834 87.084 131.218 83.496 131.41 78.72H144.73V96H140.878V81.996H135.046ZM152.425 96H147.997L152.749 89.916C151.525 89.484 150.577 88.788 149.905 87.828C149.233 86.868 148.897 85.776 148.897 84.552C148.897 82.896 149.485 81.516 150.661 80.412C151.861 79.284 153.493 78.72 155.557 78.72H164.485V96H160.633V90.348H156.709L152.425 96ZM153.721 82.644C153.121 83.1 152.821 83.748 152.821 84.588C152.821 85.428 153.121 86.088 153.721 86.568C154.321 87.024 155.149 87.252 156.205 87.252H160.633V81.924H156.205C155.149 81.924 154.321 82.164 153.721 82.644Z" fill="white"/>
<path d="M49.416 105.36H53.448V133.056H59.256V138H41.496V133.056H48.024V110.976L41.496 113.424V108.384L49.416 105.36ZM62.0081 115.68C62.0081 112.224 63.1601 109.536 65.4641 107.616C67.7681 105.696 70.6481 104.736 74.1041 104.736C78.9361 104.736 82.5041 106.176 84.8081 109.056C87.1441 111.936 88.3121 116.048 88.3121 121.392C88.3121 127.088 86.9041 131.392 84.0881 134.304C81.2721 137.184 77.6401 138.624 73.1921 138.624C70.2161 138.624 67.4001 137.984 64.7441 136.704V131.712C67.2081 133.088 69.8481 133.776 72.6641 133.776C75.4161 133.776 77.7041 132.96 79.5281 131.328C81.3841 129.696 82.4721 127.056 82.7921 123.408C79.8481 125.168 76.6801 126.048 73.2881 126.048C70.2481 126.048 67.6081 125.136 65.3681 123.312C63.1281 121.488 62.0081 118.944 62.0081 115.68ZM74.4881 109.44C72.4401 109.44 70.7601 109.936 69.4481 110.928C68.1681 111.888 67.5281 113.392 67.5281 115.44C67.5281 117.52 68.2161 119.024 69.5921 119.952C70.9681 120.848 72.7281 121.296 74.8721 121.296C77.8161 121.296 80.4401 120.384 82.7441 118.56C82.1681 112.48 79.4161 109.44 74.4881 109.44ZM99.0094 117.36C99.6494 117.872 99.9694 118.64 99.9694 119.664C99.9694 120.688 99.6494 121.472 99.0094 122.016C98.4014 122.528 97.6334 122.784 96.7054 122.784C95.8094 122.784 95.0414 122.512 94.4014 121.968C93.7934 121.424 93.4894 120.656 93.4894 119.664C93.4894 118.672 93.7934 117.904 94.4014 117.36C95.0414 116.816 95.8094 116.544 96.7054 116.544C97.6334 116.544 98.4014 116.816 99.0094 117.36ZM99.9694 135.36C99.9694 136.384 99.6654 137.168 99.0574 137.712C98.4494 138.256 97.6654 138.528 96.7054 138.528C95.8094 138.528 95.0414 138.256 94.4014 137.712C93.7934 137.168 93.4894 136.384 93.4894 135.36C93.4894 134.368 93.7934 133.616 94.4014 133.104C95.0414 132.56 95.8094 132.288 96.7054 132.288C97.6334 132.288 98.4014 132.56 99.0094 133.104C99.6494 133.616 99.9694 134.368 99.9694 135.36ZM108.844 133.968C106.38 130.832 105.148 126.736 105.148 121.68C105.148 116.624 106.38 112.544 108.844 109.44C111.308 106.304 114.956 104.736 119.788 104.736C124.62 104.736 128.268 106.304 130.732 109.44C133.196 112.544 134.428 116.624 134.428 121.68C134.428 126.736 133.196 130.832 130.732 133.968C128.268 137.072 124.62 138.624 119.788 138.624C114.956 138.624 111.308 137.072 108.844 133.968ZM119.788 133.632C125.868 133.632 128.908 129.648 128.908 121.68C128.908 113.712 125.868 109.728 119.788 109.728C113.708 109.728 110.668 113.712 110.668 121.68C110.668 129.648 113.708 133.632 119.788 133.632ZM142.734 133.968C140.27 130.832 139.038 126.736 139.038 121.68C139.038 116.624 140.27 112.544 142.734 109.44C145.198 106.304 148.846 104.736 153.678 104.736C158.51 104.736 162.158 106.304 164.622 109.44C167.086 112.544 168.318 116.624 168.318 121.68C168.318 126.736 167.086 130.832 164.622 133.968C162.158 137.072 158.51 138.624 153.678 138.624C148.846 138.624 145.198 137.072 142.734 133.968ZM153.678 133.632C159.758 133.632 162.798 129.648 162.798 121.68C162.798 113.712 159.758 109.728 153.678 109.728C147.598 109.728 144.558 113.712 144.558 121.68C144.558 129.648 147.598 133.632 153.678 133.632Z" fill="white"/>
</svg>
