<svg width="260" height="260" viewBox="0 0 260 260" fill="none" xmlns="http://www.w3.org/2000/svg">
<circle cx="130.167" cy="130.167" r="104.167" fill="#F8961D"/>
<circle cx="130" cy="130" r="127.5" stroke="#F8961D" stroke-width="5"/>
<path d="M64.9395 97.568C64.9395 93.92 66.5235 90.752 69.6915 88.064C72.8595 85.376 77.5635 84.032 83.8035 84.032C89.7075 84.032 94.3395 85.424 97.6995 88.208C101.06 90.944 102.764 94.16 102.812 97.856C102.86 102.272 100.796 106.04 96.6195 109.16C101.948 111.8 104.612 115.664 104.612 120.752C104.612 124.736 102.884 128.12 99.4275 130.904C96.0195 133.64 90.8595 135.008 83.9475 135.008C77.0835 135.008 71.8995 133.592 68.3955 130.76C64.8915 127.928 63.1395 124.472 63.1395 120.392C63.1395 117.944 63.8355 115.64 65.2275 113.48C66.6195 111.272 68.4675 109.472 70.7715 108.08C66.8835 105.44 64.9395 101.936 64.9395 97.568ZM85.0275 113.84C84.3555 113.6 83.1795 113.216 81.4995 112.688C79.8675 112.16 78.6195 111.728 77.7555 111.392C75.1155 113.6 73.8435 116.168 73.9395 119.096C73.9875 121.304 74.8995 123.104 76.6755 124.496C78.4995 125.84 81.1875 126.512 84.7395 126.512C87.3795 126.512 89.5635 126.008 91.2915 125C93.0195 123.992 93.8835 122.672 93.8835 121.04C93.8835 120.224 93.7155 119.48 93.3795 118.808C93.0435 118.136 92.6595 117.608 92.2275 117.224C91.7955 116.792 91.0995 116.36 90.1395 115.928C89.2275 115.448 88.4595 115.088 87.8355 114.848C87.2595 114.608 86.3235 114.272 85.0275 113.84ZM92.4435 98.648C92.4435 96.872 91.6515 95.408 90.0675 94.256C88.5315 93.104 86.2995 92.528 83.3715 92.528C80.8755 92.528 78.8835 93.032 77.3955 94.04C75.9555 95 75.2355 96.2 75.2355 97.64C75.2355 98.456 75.4275 99.224 75.8115 99.944C76.1955 100.616 76.6035 101.168 77.0355 101.6C77.4675 102.032 78.1875 102.488 79.1955 102.968C80.2035 103.4 80.9955 103.736 81.5715 103.976C82.1475 104.168 83.1075 104.48 84.4515 104.912C84.9795 105.056 85.7475 105.296 86.7555 105.632C87.8115 105.92 88.5555 106.112 88.9875 106.208C91.3875 103.808 92.5395 101.288 92.4435 98.648ZM113.986 84.968H145.09V94.256L123.706 94.184L123.058 103.76C125.362 103.28 127.474 103.04 129.394 103.04C134.674 103.04 138.97 104.312 142.282 106.856C145.642 109.4 147.322 113.336 147.322 118.664C147.322 124.04 145.33 128.12 141.346 130.904C137.362 133.64 132.442 135.008 126.586 135.008C120.634 135.008 115.378 133.904 110.818 131.696V121.688C114.898 124.28 119.746 125.576 125.362 125.576C128.722 125.576 131.41 124.976 133.426 123.776C135.49 122.576 136.522 120.824 136.522 118.52C136.522 113.72 132.538 111.32 124.57 111.32C120.25 111.32 116.146 112.016 112.258 113.408L113.986 84.968ZM158.617 127.952C154.921 123.2 153.073 117.056 153.073 109.52C153.073 101.984 154.921 95.864 158.617 91.16C162.361 86.408 167.953 84.032 175.393 84.032C182.833 84.032 188.401 86.408 192.097 91.16C195.841 95.864 197.713 101.984 197.713 109.52C197.713 117.056 195.841 123.2 192.097 127.952C188.401 132.656 182.833 135.008 175.393 135.008C167.953 135.008 162.361 132.656 158.617 127.952ZM175.393 125.504C183.073 125.504 186.913 120.176 186.913 109.52C186.913 98.864 183.073 93.536 175.393 93.536C167.713 93.536 163.873 98.864 163.873 109.52C163.873 120.176 167.713 125.504 175.393 125.504ZM99.2192 182H94.0832V158.96H111.267V163.472H99.2192V182ZM119.831 162.56C122.167 159.744 125.127 158.336 128.711 158.336C132.103 158.336 134.855 159.52 136.967 161.888C139.079 164.224 140.135 167.088 140.135 170.48C140.135 173.872 139.079 176.752 136.967 179.12C134.855 181.456 132.103 182.624 128.711 182.624C125.255 182.624 122.487 181.424 120.407 179.024V192.56H115.271V158.96H119.831V162.56ZM132.887 176C134.231 174.56 134.903 172.72 134.903 170.48C134.903 168.24 134.231 166.416 132.887 165.008C131.543 163.568 129.831 162.848 127.751 162.848C126.055 162.848 124.551 163.312 123.239 164.24C121.959 165.168 121.015 166.304 120.407 167.648V173.264C121.015 174.64 121.959 175.792 123.239 176.72C124.551 177.648 126.055 178.112 127.751 178.112C129.831 178.112 131.543 177.408 132.887 176ZM150.266 182H145.13V158.96H150.266V168.224H161.786V158.96H166.922V182H161.786V172.736H150.266V182Z" fill="white"/>
</svg>
