<svg width="162" height="51" viewBox="0 0 162 51" fill="none" xmlns="http://www.w3.org/2000/svg">
<path d="M0 50.9919C0.952396 50.2689 3.3376 48.8395 3.80115 48.424C5.73966 46.6706 8.57156 43.2052 6.1105 37.1055C10.2235 37.6539 10.6449 38.1941 18.3062 38.8672C57.1269 42.2661 77.8015 38.3437 110.714 38.5348C123.398 38.6096 139.716 39.316 162 42.3575C161.831 42.4074 158.957 43.3963 158.207 46.5127C157.659 48.7731 158.612 50.6262 158.814 51.0002C150.386 48.8479 140.204 46.2467 125.43 44.8506C108.118 43.2135 95.1469 43.9864 86.1286 44.5182C60.5909 46.0224 30.2322 49.1221 0 50.9919Z" fill="#F8961D"/>
<path d="M45.614 40.23L48.1846 40.2466C48.2942 40.2466 48.5639 40.2466 48.5639 40.2466C48.8505 40.2466 48.9179 40.338 48.901 40.6205C48.8926 40.7452 48.8926 40.8532 48.8926 40.9363C48.8926 41.9169 49.1707 42.7147 49.7354 43.3214C50.3001 43.928 51.0334 44.2272 51.9268 44.2272C52.7022 44.2272 53.4692 43.9862 54.2109 43.5042C54.961 43.0222 55.6437 42.2161 56.2674 41.0776C56.8911 39.9391 57.599 38.169 58.3744 35.759C59.0656 33.3324 59.7482 30.8394 60.4309 28.2798C60.5658 27.7729 59.8915 27.4405 59.5628 27.856C58.5009 29.1939 57.54 30.2826 56.6719 31.1219C55.4161 32.3435 54.253 33.2161 53.2079 33.7397C52.4325 34.1302 51.8172 34.3297 51.3789 34.3297C50.7721 34.3297 50.2411 33.9973 49.786 33.3241C49.3393 32.651 49.1117 31.6039 49.1117 30.1745C49.1117 29.3186 49.196 28.205 49.3646 26.8338L49.8197 23.2687C50.2496 19.82 50.4603 17.8255 50.4603 17.2853C50.4603 16.4543 50.3844 15.9225 50.2411 15.6731C50.0978 15.4238 49.8871 15.2992 49.609 15.2992C49.3477 15.2992 48.9769 15.4654 48.488 15.7978C47.5694 16.3795 46.8277 16.928 46.2545 17.4432C46.0101 17.6676 45.614 17.5845 45.4791 17.2853L45.3443 16.9945C45.2516 16.7867 45.3106 16.5374 45.496 16.4045C45.909 16.097 46.6844 15.5153 47.8222 14.651C49.4067 13.446 50.7384 12.5984 51.8256 12.0997C52.6179 11.7424 53.2753 11.5596 53.7979 11.5596C54.3794 11.5596 54.8345 11.7839 55.1633 12.2244C55.492 12.6648 55.6521 13.4044 55.6521 14.4266C55.6521 14.9418 55.61 15.5153 55.5341 16.1635L54.548 24.2244C54.3626 25.687 54.2699 27.0998 54.2699 28.4709C54.2699 29.1939 54.3457 29.6759 54.4974 29.9252C54.6491 30.1745 54.8514 30.2992 55.0874 30.2992C55.7279 30.2992 56.6382 29.5928 57.8266 28.1801C59.8325 25.8034 61.3749 22.9779 62.4369 19.6953C63.4061 16.7036 63.9624 14.518 64.0973 13.1468C64.1225 12.9308 64.2827 12.7479 64.5018 12.7147C65.4458 12.5568 67.005 12.2327 69.1879 11.7175C69.3312 11.6842 69.4914 11.7175 69.6094 11.8089L69.6599 11.8504C69.8285 11.9834 69.8959 12.2078 69.8201 12.4072C69.2554 13.8864 68.6991 15.615 68.1428 17.6011L65.9431 25.2715C64.5692 30.1164 63.3893 33.5984 62.3947 35.7175C60.7512 39.1912 58.5093 42.9308 56.1999 44.6926C53.899 46.4543 52.1038 46.6455 50.1231 46.6455C49.1202 46.6455 48.1088 46.4959 47.4008 46.0222C46.4231 45.3657 46.1281 44.9086 45.8247 44.3352C45.5297 43.7701 45.319 41.7258 45.319 40.7951V40.6787C45.3611 40.4793 45.4623 40.3214 45.614 40.23Z" fill="#151515"/>
<path d="M7.80452 32.8004C7.86352 32.4431 8.17536 32.1855 8.53778 32.1855H9.06877C10.2234 32.1855 11.0747 31.9362 11.6394 31.4458C11.6647 31.4292 11.6815 31.4043 11.7068 31.3794L17.0251 25.5871L21.3488 20.9832L23.2452 18.9472C23.4559 18.7229 23.5065 18.3821 23.3547 18.1079L18.8877 9.68131C17.1684 6.44863 16.0811 4.62037 15.626 4.19655C15.1793 3.77273 14.387 3.56497 13.2576 3.56497H12.4569C11.9934 3.56497 11.6394 3.14946 11.7237 2.70071L11.7321 2.66747C11.7995 2.30182 12.1282 2.0442 12.4991 2.06082C14.4376 2.14392 16.8228 2.18547 19.6716 2.18547C22.2169 2.18547 24.3409 2.14392 26.0518 2.06913C26.4732 2.05251 26.8356 2.38492 26.8356 2.80043V2.82536C26.8356 3.23256 26.4985 3.56497 26.0855 3.56497H25.7821C24.7033 3.56497 23.9869 3.64808 23.6413 3.80597C23.2957 3.96387 23.1272 4.18824 23.1272 4.47079C23.1272 4.75334 23.203 5.08575 23.3547 5.46802C23.6413 6.15777 24.2144 7.3212 25.0741 8.9417L27.3329 13.1882C27.5689 13.637 28.1926 13.7201 28.5381 13.3461L31.5218 10.1633C34.4211 6.88076 35.8708 4.99434 35.8708 4.49572C35.8708 4.2381 35.7191 4.02204 35.4156 3.83921C35.1122 3.65639 34.5475 3.56497 33.7216 3.56497H32.7102C32.2803 3.56497 31.9432 3.20763 31.9685 2.78381V2.75888C31.9937 2.35999 32.3393 2.05251 32.7523 2.06913C34.5307 2.15223 36.3175 2.19378 38.0958 2.19378C39.8489 2.19378 41.6189 2.15223 43.3973 2.07744C43.8692 2.06082 44.2485 2.46802 44.1727 2.93339V2.95001C44.1137 3.30736 43.8018 3.56497 43.4394 3.56497H43.2708C42.0993 3.56497 41.2059 3.79766 40.5906 4.26303C39.6129 4.98603 37.2699 7.32951 33.5446 11.3018L29.3051 15.8392C29.0944 16.0719 29.0439 16.4043 29.1956 16.6785L33.4097 24.5982C35.6938 28.9777 37.0002 31.3378 37.3204 31.6785C37.6407 32.0193 38.4498 32.1855 39.7478 32.1855H39.8068C40.2703 32.1855 40.6159 32.5927 40.5401 33.0414V33.0663C40.4811 33.4403 40.1439 33.7062 39.7562 33.6813C37.5649 33.5566 35.4578 33.4985 33.4519 33.4985C31.4628 33.4985 29.2714 33.5566 26.8609 33.6813C26.4226 33.7062 26.0602 33.3489 26.0771 32.9168V32.9001C26.0939 32.5096 26.4226 32.1938 26.8188 32.1938H28.0072C28.7657 32.1938 29.2798 32.1024 29.5243 31.9195C29.7771 31.7367 29.9035 31.4791 29.9035 31.1301C29.9035 30.6647 29.5158 29.6924 28.7404 28.2215L25.2511 21.6481C25.0151 21.1993 24.3914 21.1162 24.0374 21.4902L21.6691 24.0248C20.9948 24.7062 19.8064 26.0691 18.1039 28.1301C17.1262 29.3018 16.5615 30.0414 16.4098 30.3572C16.2581 30.6647 16.1823 30.8974 16.1823 31.047C16.1823 31.4209 16.3424 31.7118 16.6627 31.9029C16.9829 32.094 17.6572 32.1938 18.677 32.1938H19.5199C19.9413 32.1938 20.2868 32.5428 20.2616 32.9583V32.9749C20.2447 33.3821 19.8907 33.6979 19.4693 33.673C17.3959 33.5567 15.4827 33.4902 13.7296 33.4902C12.0355 33.4902 10.3246 33.54 8.59678 33.6564C8.10794 33.6813 7.72867 33.2658 7.80452 32.8004Z" fill="#151515"/>
<path d="M74.5567 33.7646L74.5399 33.748C74.4219 33.5901 74.3881 33.3823 74.4471 33.1912L74.9107 31.7535C75.2478 30.748 75.6861 29.2771 76.2087 27.3574C76.9335 24.6981 77.515 22.1552 77.9533 19.7369C78.1977 18.3823 78.3157 17.4931 78.3157 17.0527C78.3157 16.6039 78.2567 16.2549 78.1303 16.0139C78.0376 15.8809 77.9112 15.8144 77.7426 15.8144C77.2285 15.8144 76.2255 16.4211 74.7421 17.6261C74.4471 17.8671 74.0004 17.7923 73.7982 17.4599L73.7729 17.41C73.6127 17.1441 73.6802 16.7951 73.933 16.6039C76.2845 14.8255 77.7932 13.7203 78.459 13.2798C79.5126 12.5734 80.4059 12.0914 81.1392 11.8338C81.6618 11.6344 82.0832 11.543 82.4035 11.543C82.8164 11.543 83.1536 11.6676 83.4149 11.9252C83.6761 12.1829 83.8025 12.5153 83.8025 12.9391C83.8025 13.3629 83.7098 14.0028 83.5244 14.8588C83.0524 17.061 82.7153 18.4987 82.5046 19.1718C82.4962 19.1884 82.4962 19.1967 82.4962 19.2133L82.395 19.6621C82.2433 20.3269 83.1283 20.7092 83.5244 20.1524C84.9151 18.1829 86.3479 16.5457 87.8397 15.2493C90.68 12.7812 92.9304 11.543 94.6076 11.543C95.1133 11.543 95.5179 11.7009 95.8213 12.025C96.1247 12.3408 96.2764 12.7978 96.2764 13.3962C96.2764 13.9945 96.1331 14.9336 95.8381 16.2133C95.56 17.2106 95.2987 18.1413 95.0543 18.9973C94.8689 19.6621 95.7623 20.0859 96.1668 19.5208C96.9507 18.4239 97.7598 17.4433 98.6026 16.5956C100.28 14.8837 101.923 13.6205 103.533 12.7895C105.143 11.9585 106.449 11.543 107.461 11.543C107.992 11.543 108.413 11.7258 108.708 12.0998C109.003 12.4737 109.155 13.0637 109.155 13.8865C109.155 14.6676 108.792 16.3629 108.076 18.964L107.132 22.3712C106.812 23.4848 106.449 25.1469 106.045 27.3574C105.817 28.6039 105.708 29.3519 105.708 29.5929C105.708 30.133 105.885 30.4073 106.23 30.4073C106.424 30.4073 106.677 30.3075 106.98 30.1164C107.84 29.6095 108.573 29.1275 109.189 28.6704C109.5 28.446 109.939 28.5375 110.124 28.8699C110.276 29.1441 110.192 29.4848 109.939 29.6676L106.483 32.1026C105.286 32.8671 104.3 33.399 103.516 33.6815C102.732 33.9641 102.142 34.1136 101.729 34.1136C101.232 34.1136 100.819 33.9391 100.491 33.5818C100.162 33.2244 100.002 32.7175 100.002 32.061C100.002 31.4876 100.145 30.5901 100.44 29.3519L102.994 19.5208C103.28 18.2909 103.432 17.4599 103.432 17.0361C103.432 16.687 103.365 16.4294 103.23 16.2549C103.095 16.0804 102.909 15.9973 102.682 15.9973C102.345 15.9973 101.966 16.1136 101.536 16.338C100.668 16.7867 99.6561 17.6178 98.5099 18.8311C97.3637 20.0444 96.3691 21.3823 95.5347 22.8532C94.6919 24.3241 93.9418 26.1607 93.2759 28.3546C92.7028 30.2494 92.3404 31.7868 92.1971 32.9668C92.1634 33.266 91.919 33.4904 91.6156 33.507C90.6463 33.5568 89.3062 33.7314 87.6037 34.0388C87.393 34.0804 87.1739 34.0056 87.0221 33.8394L86.9631 33.7729C86.8114 33.5984 86.7609 33.3657 86.8452 33.1496C87.2329 32.1192 87.9155 30.0582 88.8848 26.9751C89.3905 25.4128 89.9383 23.2106 90.5199 20.3685C90.9329 18.3408 91.1436 17.0111 91.1436 16.3795C91.1436 16.0305 91.0677 15.7729 90.916 15.5901C90.7643 15.4072 90.562 15.3158 90.3008 15.3158C89.7698 15.3158 89.0618 15.6649 88.1768 16.3546C86.803 17.4349 85.3112 19.2798 83.7014 21.8809C82.513 23.7923 81.6112 25.8699 81.0044 28.1136C80.4818 30.0499 80.1447 31.6039 80.0098 32.7591C79.9761 33.0582 79.7233 33.2826 79.4114 33.2992C78.2146 33.3574 76.8324 33.5818 75.2563 33.989C74.9697 34.0555 74.7084 33.9641 74.5567 33.7646Z" fill="#151515"/>
<path d="M115.173 17.6926C115.046 17.41 115.139 17.0776 115.392 16.8948C118.83 14.4349 121.03 12.9723 121.974 12.4903C123.255 11.8588 124.216 11.543 124.857 11.543C125.27 11.543 125.607 11.7009 125.885 12.0083C126.163 12.3158 126.298 12.748 126.298 13.3047C126.298 14.3685 125.801 16.5707 124.814 19.8948L124.064 22.3297C122.926 26.0859 122.353 28.4626 122.353 29.4599C122.353 29.9751 122.564 30.2244 122.994 30.2244C123.348 30.2244 124.452 29.6344 126.289 28.4543C126.618 28.2466 127.065 28.3629 127.242 28.7036L127.259 28.7286C127.41 29.0277 127.318 29.3851 127.039 29.5679L122.8 32.3601C121.536 33.1413 120.583 33.6399 119.943 33.8477C119.505 34.0139 119.092 34.097 118.712 34.097C118.131 34.097 117.684 33.9058 117.372 33.5236C117.06 33.1413 116.9 32.518 116.9 31.6621C116.9 30.5319 117.145 29.0942 117.634 27.3324L119.167 21.964C119.934 19.2715 120.322 17.518 120.322 16.7119C120.322 16.3214 120.145 16.1219 119.8 16.1219C119.555 16.1219 119.193 16.2383 118.704 16.4793C117.785 16.9446 116.934 17.4432 116.167 17.9585C115.805 18.1995 115.341 18.0582 115.173 17.6926Z" fill="#151515"/>
<path d="M131.557 45.5319C131.271 45.4987 131.085 45.0333 131.161 44.7591C131.903 42.2577 132.518 40.4045 133.024 38.4433C133.512 36.6399 134.338 33.266 135.493 28.3297C136.926 22.2798 137.642 18.3906 137.642 16.6621C137.642 16.1635 137.44 15.9142 137.044 15.9142C136.597 15.9142 135.586 16.4543 134.001 17.5347C133.765 17.6926 133.445 17.6178 133.319 17.3685L133.142 17.0361C133.032 16.8366 133.091 16.5873 133.276 16.446C136.201 14.302 138.224 12.9557 139.37 12.3989C140.55 11.8255 141.494 11.5347 142.194 11.5347C142.556 11.5347 142.851 11.6593 143.062 11.9086C143.272 12.1579 143.382 12.4987 143.382 12.9391C143.382 13.2549 143.34 13.6538 143.247 14.1358L142.177 18.6732C142.05 19.1635 142.699 19.471 143.011 19.0638C144.604 16.9779 146.172 15.374 147.714 14.2438C150.201 12.4405 152.282 11.5347 153.96 11.5347C154.718 11.5347 155.283 11.8421 155.654 12.4571C156.328 13.5541 156.657 14.9336 156.657 16.5873C156.657 18.482 156.294 20.5513 155.578 22.7951C154.861 25.0388 154.078 26.7258 153.235 27.856C152.392 28.9862 151.237 30.0167 149.779 30.964C148.321 31.9031 146.871 32.7175 145.422 33.3906C144.461 33.856 143.23 34.0887 141.738 34.0887C141.073 34.0887 140.39 34.0139 139.674 33.8643C139.429 33.8145 139.193 33.9557 139.126 34.1884L138.628 35.892C138.359 36.8228 137.946 38.4848 137.398 40.8782C137.229 41.6261 137.103 42.3159 137.019 42.9308C136.951 43.4377 136.934 44.5679 136.917 45.4156C136.917 45.6815 136.673 46.2466 136.403 46.1967C134.751 45.9059 132.569 45.6566 131.557 45.5319ZM139.808 30.2411C139.758 30.4571 139.876 30.6732 140.078 30.7646C141.713 31.5042 143.087 31.8699 144.2 31.8699C145.253 31.8699 146.13 31.5458 146.838 30.8976C147.782 30.0084 148.742 28.1469 149.72 25.3214C150.698 22.4876 151.187 19.8782 151.187 17.4848C151.187 16.5541 151.085 15.9308 150.892 15.6067C150.689 15.2909 150.411 15.133 150.04 15.133C149.29 15.133 148.372 15.5402 147.267 16.3546C145.616 17.5762 144.174 19.2632 142.935 21.4156C141.696 23.5679 140.744 26.1025 140.07 29.0278L139.808 30.2411Z" fill="#151515"/>
<path d="M125.539 6.61496C127.392 6.61496 128.894 5.13415 128.894 3.30748C128.894 1.48081 127.392 0 125.539 0C123.687 0 122.185 1.48081 122.185 3.30748C122.185 5.13415 123.687 6.61496 125.539 6.61496Z" fill="#151515"/>
</svg>
